<svg xmlns="http://www.w3.org/2000/svg" width="280" height="27" viewBox="0 0 280 27"><path d="M57.7 6.9l.2-.9-.6-.6-1.7 1-1.2-.4-.6-2-.9.1.1 1-.2.2-.6-.9.2-.8-.4-1.4-1.3-1.1h-.9L49 0l-.7.4 1 1.1v.4L52 6l-.1 1.3-.4 1.5-1.1.8v.6l1.7.8.4.7-1 1.9.3.4h.6l.3.4.8-.5 1.3-2.1.7-1.6-.2-.4.4-.9h.7l.1.4.6-.3v-.9l.5-.3zM43.9 4c0-.5.2-.9.6-.9.4 0 .6.3.6.9v3.3c0 .5-.2.9-.6.9-.4 0-.6-.3-.6-.9V4zm-3.2-1.6V9l2.1 2h3.5l2.1-2V2.4l-2.1-2h-3.5l-2.1 2zm5 21.7l.6-.2v-.5l.7-1.6.6-1.7.8-.7.8.2.4-.1.1-.4-.5-.6.2-.4.8-1 .1-.7.5-.2.5-1.2-.1-.4.1-.4-.1-.2.1-.5-.6-.2-1 .6v-.5l-.3-.2-.2.1v-.1l.1-.3.1-.2-.1-.3-1.1.9-.5 1.7-.7.5-.4 1.6-3 2.9-1 .3-1.3 1.9-.9 2.1.5.7 1-.3.3.4h.6v.3l1 .1 1-.5zm11.1-2.6c0 .5-.2.9-.6.9-.4 0-.6-.3-.6-.9v-3.3c0-.5.2-.9.6-.9.4 0 .6.3.6.9v3.3zm3.2 1.7v-6.6l-2.1-2h-3.5l-2.1 2v6.6l2.1 2h3.5l2.1-2zm-17.8 2.4l-.3.1.1.5-.6.7.2.1 1.2-.3.2-.5-.2-.1zm-39.8-.4H8V.3H5.1L3.2 2.2H0v4.9h2.4zM13.7.3l-3.5 3.5v17.9l3.5 3.5H20l3.5-3.5V3.8L20 .3h-6.3zm4.2 19.5c0 .6-.4 1-.9 1h-.4c-.5 0-.9-.4-.9-1v-14c0-.6.4-1 .9-1h.4c.5 0 .9.4.9 1v14zm17.5 5.4l3.5-3.5V3.8L35.4.3h-6.3l-3.5 3.5v17.9l3.5 3.5h6.3zM31.2 5.7c0-.6.4-1 .9-1h.4c.5 0 .9.4.9 1v14c0 .6-.4 1-.9 1h-.4c-.5 0-.9-.4-.9-1v-14zM66.4.3v24.9H72v-8.8h4.1l3.5-3.5V3.8L76.1.3h-9.7zM74 11.1c0 .6-.4.9-.9.9H72V4.8h1.1c.5 0 .9.3.9.9v5.4zM81.4.3v21.4l3.5 3.5h6.3l3.5-3.5V.3h-5.6v19.5c0 .6-.4 1-.9 1h-.4c-.5 0-.9-.4-.9-1V.3h-5.5zM110 3.8L106.5.3h-9.7v24.9h5.6v-9.5h1.1c.5 0 .9.3.9.9v6.2l.3 2.4h5.6l-.3-2.7v-6.8l-2.5-2.4 2.5-2.4V3.8zm-5.6 6.2c0 .6-.4.9-.9.9h-1.1V4.8h1.1c.5 0 .9.3.9.9V10zm7.8 15.2h10.5v-4.8h-5V15h4.6v-4.8h-4.6V5.1h5V.3h-10.5zm24.5-14.8h-.3L134.1.3h-5.3v24.9h5.2V14.5h.3l2.8 10.7h4.8V.3h-5.2zm7.3 14.8h10.6v-4.8h-5V15h4.6v-4.8h-4.6V5.1h5V.3H144zm38-20.1h5.3L182 20.8v4.4h11.4v-4.8h-5.2l5.2-15.6V.3H182zm13.2 20.1h10.5v-4.8h-4.9V15h4.5v-4.8h-4.5V5.1h4.9V.3h-10.5zM223.6.3v24.9h10v-4.8h-4.5V.3zm35.8 10.1h-.3L256.8.3h-5.3v24.9h5.2V14.5h.3l2.8 10.7h4.8V.3h-5.2zm7.3 14.8h9.7l3.5-3.5V3.8L276.4.3h-9.7v24.9zm5.6-20.4h1.2c.5 0 .9.3.9.9v14.2c0 .6-.4.9-.9.9h-1.2v-16zm-102.7 7h-.3L168.1.3h-4l-1.2 11.5h-.3L161.4.3h-5.3l3.2 24.9h5l1.5-10.8h.2l1.4 10.8h5.1L175.7.3h-4.9zM211 .3l-4 24.9h5.4l.5-4h3.3l.5 4h5.6l-4-24.9H211zm2.4 16.4l1-8.1h.2l1 8.1h-2.2zM238.9.3l-4 24.9h5.4l.5-4h3.3l.5 4h5.6l-4-24.9h-7.3zm2.4 16.4l1-8.1h.2l1 8.1h-2.2z" fill="#FFF"/></svg>